<svg version="1.1" id="Layer_1" xmlns="http://www.w3.org/2000/svg" xmlns:xlink="http://www.w3.org/1999/xlink" x="0px" y="0px"
	 width="20px" height='21px' viewBox="0 0 593 508" enable-background="new 0 0 593 508" xml:space="preserve">
<path fill="white" opacity="0" stroke="none" 
	d="
M298.000000,509.000000 
	C297.555573,509.000000 297.111115,509.000000 296.420746,508.539032 
	C296.269714,503.915436 296.291077,499.749420 296.481110,495.591125 
	C296.655548,491.774567 295.556793,489.661957 291.138062,489.953186 
	C285.995636,490.292084 280.786224,489.728363 275.661011,490.180786 
	C271.099396,490.583527 268.801331,488.801788 266.958069,484.777649 
	C261.191498,472.188416 255.158188,459.717926 248.978241,447.326141 
	C248.233536,445.832886 245.978546,444.237885 244.384323,444.196381 
	C240.764709,444.102112 239.835403,442.652863 239.921829,439.317505 
	C240.103043,432.326080 239.688583,425.308594 240.125519,418.339844 
	C240.293900,415.654297 241.566605,412.624359 243.285660,410.531036 
	C247.601196,405.275787 252.480911,400.486053 257.094482,395.472931 
	C275.324097,375.664581 293.337311,355.652466 311.806854,336.070648 
	C337.657990,308.662628 330.818878,272.869019 303.323151,252.533127 
	C297.101044,247.931259 288.826172,246.130585 282.518738,241.612885 
	C269.420258,232.231110 257.106354,221.753677 247.069000,208.981583 
	C230.836578,188.326538 220.111984,164.540085 208.922424,141.038834 
	C206.028442,134.960632 206.228470,134.795425 212.839981,134.793167 
	C231.329636,134.786865 249.819336,134.773926 268.308868,134.822159 
	C271.536804,134.830582 274.001617,134.398941 274.895599,130.496964 
	C275.206146,129.141495 277.409882,127.617920 278.982208,127.290131 
	C281.536316,126.757668 284.298157,127.317184 286.941284,127.075890 
	C288.274323,126.954185 290.502106,126.296272 290.671356,125.520096 
	C291.482452,121.801247 294.199005,122.195808 296.780670,122.119759 
	C299.665741,122.034782 302.491272,122.639099 304.749176,119.553314 
	C305.557373,118.448769 308.938812,118.357689 310.626862,119.056839 
	C311.853027,119.564690 312.722717,122.087433 312.877167,123.791031 
	C313.209961,127.461807 312.979462,131.183655 312.979462,134.047256 
	C319.968231,131.921951 326.335144,128.934662 332.953064,128.195724 
	C346.047943,126.733620 358.930420,129.637177 371.733093,132.294342 
	C384.395630,134.922455 396.889252,138.810852 410.122314,137.057571 
	C418.845276,135.901855 427.034363,133.227982 433.292389,126.994987 
	C437.072693,123.229828 440.880127,121.483017 446.029938,122.120262 
	C447.325317,122.280556 448.674896,122.002953 450.395142,122.030037 
	C453.646698,121.080391 456.433533,119.700172 459.380463,119.076851 
	C461.772369,118.570930 464.383728,119.207787 466.849121,118.920265 
	C470.843140,118.454468 473.610748,119.685158 476.102356,123.032379 
	C480.283539,128.649216 485.347656,132.285172 493.324249,131.522873 
	C499.163910,130.964798 501.032684,126.326920 504.832306,123.747253 
	C506.055664,122.916710 508.313019,121.720680 508.878662,122.182953 
	C510.275665,123.324799 511.333740,125.241844 511.763153,127.030884 
	C511.936523,127.753181 510.299347,129.374466 509.171539,129.868759 
	C502.211853,132.918930 507.824310,137.220886 508.278961,140.702118 
	C508.751251,144.318130 511.756866,142.937927 514.199829,142.231262 
	C534.389099,136.391251 554.622192,130.701111 574.767822,124.715630 
	C576.459595,124.212975 578.423035,122.077820 578.826782,120.363518 
	C579.488098,117.555374 578.502136,114.889046 574.988281,113.967110 
	C570.378418,112.757599 565.904541,110.919327 561.241394,110.064629 
	C558.424988,109.548401 555.105103,109.720879 552.457092,110.740898 
	C545.380859,113.466721 538.579407,116.898453 531.583069,119.846207 
	C530.296204,120.388412 527.738953,120.593300 527.245728,119.901047 
	C524.344543,115.829285 520.980469,112.200920 520.800964,106.402969 
	C520.460938,95.422653 523.048950,84.262856 519.221069,73.429306 
	C518.969116,72.716255 519.653748,71.541618 520.139465,70.721947 
	C521.909180,67.735512 523.796814,64.819290 525.606445,61.856144 
	C527.140259,59.344727 528.836365,58.658352 531.783569,60.111759 
	C538.715332,63.530071 545.809998,66.629990 552.923584,69.659485 
	C554.818726,70.466568 557.194580,71.281242 559.048584,70.836617 
	C564.776978,69.462845 570.507935,67.829803 575.908142,65.524879 
	C577.504456,64.843567 578.594238,61.655312 578.787598,59.513992 
	C578.899414,58.275146 577.002563,56.025265 575.597717,55.603752 
	C554.873962,49.385929 534.079895,43.402725 513.305786,37.352657 
	C510.512085,36.539047 508.425446,36.766781 507.889648,40.279400 
	C507.670837,41.713985 506.964203,43.080494 506.431732,44.459538 
	C505.442474,47.021786 505.820526,49.015896 508.725067,49.877640 
	C512.715759,51.061630 512.612488,53.284130 510.494965,56.193211 
	C509.359039,57.753696 508.388916,59.434853 507.257141,61.196758 
	C506.374817,60.753033 505.706818,60.573608 505.250031,60.160545 
	C503.159027,58.269562 501.110474,56.330517 499.077942,54.376194 
	C495.975403,51.393070 486.065704,50.721710 482.971863,53.634342 
	C479.476013,56.925446 476.326263,60.584194 472.557129,64.124451 
	C466.720886,64.343422 461.353546,64.520996 455.653107,64.470367 
	C452.555695,59.457352 448.035278,61.258617 443.706451,61.140839 
	C442.910645,61.302158 442.412476,61.547611 441.549438,61.836685 
	C439.570801,60.911076 437.694946,60.210300 436.384399,58.930580 
	C424.818817,47.636906 410.630737,44.307873 395.283813,46.512291 
	C381.284180,48.523178 367.551544,52.362064 353.564331,54.499416 
	C342.172577,56.240166 330.517487,57.312298 319.548492,51.879719 
	C317.549103,50.889500 315.662170,49.672226 312.978821,48.132572 
	C312.978821,52.735321 313.184296,56.367176 312.886261,59.957222 
	C312.750885,61.588257 311.878601,64.255692 310.883484,64.487106 
	C308.871582,64.954948 306.493408,64.281143 304.366180,63.707577 
	C301.828278,63.023254 299.456421,61.538990 296.899841,61.157974 
	C294.158173,60.749378 291.314362,61.486454 290.281128,57.645340 
	C290.059418,56.821175 287.857361,56.201347 286.513123,56.077171 
	C283.869598,55.832981 281.134369,56.316418 278.543579,55.874454 
	C277.159302,55.638309 275.087616,54.251759 274.900665,53.123531 
	C274.277374,49.361423 272.098206,48.817371 268.886566,48.820045 
	C208.570480,48.870319 148.254333,48.875057 87.938263,48.812462 
	C84.462471,48.808853 82.491760,49.644192 82.927177,53.564606 
	C83.407272,57.887356 81.332954,59.261032 77.074142,59.103241 
	C69.087418,58.807331 61.076946,59.176327 53.087120,58.925552 
	C50.647339,58.848980 46.273312,60.887165 46.177677,56.604916 
	C46.071491,51.850262 50.660358,54.093227 53.202522,53.886459 
	C57.488712,53.537834 61.823837,53.790882 67.397942,53.790882 
	C63.562145,49.468044 40.968990,48.393787 34.920986,50.974171 
	C35.694775,56.046051 35.285011,60.366627 28.095583,59.260906 
	C27.627241,59.188873 26.153419,61.958340 26.141253,63.414360 
	C26.118523,66.134331 25.493071,67.941750 22.589172,68.378380 
	C18.656214,68.969765 17.579216,71.495255 17.617298,75.150215 
	C17.723185,85.312859 17.695868,95.477654 17.628765,105.640984 
	C17.602085,109.681885 19.368752,112.371635 22.637348,114.740982 
	C24.299898,115.946136 25.722912,118.541084 25.830395,120.582741 
	C25.989817,123.610977 27.238464,124.641937 29.836826,124.858330 
	C31.447241,124.992439 33.066559,125.019630 35.020588,125.110580 
	C35.020588,127.229530 34.793148,129.072845 35.103397,130.820724 
	C35.298653,131.920731 36.305447,133.769012 36.938084,133.764786 
	C45.978657,133.704636 55.017506,133.385605 64.426048,133.058304 
	C65.220940,132.255478 65.646553,131.523331 66.072166,130.791168 
	C65.375580,130.581390 64.678993,130.371597 63.519894,130.093750 
	C58.559574,130.021088 54.051296,130.184250 49.570637,129.904739 
	C48.306278,129.825851 47.122776,128.450912 45.902184,127.670425 
	C46.940449,126.678154 47.955040,124.853485 49.020668,124.823181 
	C59.004440,124.539230 69.002632,124.384933 78.980309,124.704063 
	C80.348618,124.747833 82.722610,127.576530 82.740021,129.136948 
	C82.789917,133.611176 84.668671,134.907852 88.825935,134.854218 
	C100.818588,134.699524 112.815193,134.865265 124.808563,134.741821 
	C128.331451,134.705566 130.090881,135.842987 130.014130,139.592850 
	C129.874252,146.424133 131.799271,152.919998 136.148102,157.996933 
	C144.994980,168.324997 154.058640,178.528275 163.729599,188.077454 
	C187.277039,211.328430 204.171341,238.374146 213.233490,270.326233 
	C214.539505,274.931061 213.521835,277.803070 210.569778,280.976990 
	C194.947647,297.773193 179.489456,314.722473 163.786148,331.441803 
	C162.169266,333.163269 159.358109,333.863953 156.981918,334.699280 
	C156.398987,334.904205 155.082352,333.939331 154.611679,333.191895 
	C154.342499,332.764435 154.883057,331.462067 155.429871,330.948120 
	C157.968369,328.562134 160.571320,326.234100 163.271332,324.032684 
	C169.641159,318.839111 171.874817,311.711304 168.573441,306.144501 
	C164.004059,298.439575 155.058792,296.485657 147.731842,302.814484 
	C142.707932,307.154053 137.756622,311.577637 132.731995,315.916351 
	C128.747849,319.356628 126.231079,323.399048 126.850945,328.921173 
	C127.173317,331.792999 125.591988,332.498047 123.165993,331.747650 
	C120.640976,330.966675 118.144768,330.071014 115.689728,329.090851 
	C112.754509,327.918945 111.177437,328.821625 110.408524,331.881775 
	C108.232872,340.540497 107.909805,349.086243 110.912575,357.672638 
	C116.481522,373.597046 127.303902,383.496368 143.815201,387.261383 
	C145.679077,387.686401 148.069382,388.866150 148.874252,390.399841 
	C157.236633,406.334991 157.160248,406.375061 157.162125,424.714020 
	C157.162582,429.211975 156.902969,433.729309 157.235870,438.202545 
	C157.576263,442.776276 156.026642,444.764618 151.338943,444.038025 
	C147.497696,443.442627 145.211197,444.638580 143.449890,448.688080 
	C138.143082,460.889130 132.076889,472.757629 126.493561,484.842072 
	C124.766251,488.580597 122.606461,490.551086 118.155418,490.186127 
	C112.858681,489.751801 107.498779,490.154053 102.172417,489.991608 
	C98.554291,489.881287 96.577881,490.807861 96.891640,495.013306 
	C97.237770,499.652405 96.989410,504.335876 97.000000,509.000000 
	C96.555557,509.000000 96.111115,509.000000 95.041550,508.700562 
	C92.604958,508.267853 90.793602,508.019867 88.982025,508.018341 
	C59.654701,507.993744 30.327347,508.000427 1.000000,508.000000 
	C1.000000,339.044708 1.000000,170.089417 1.000000,1.067057 
	C198.569656,1.067057 396.139343,1.067057 594.000000,1.067057 
	C594.000000,169.691452 594.000000,338.383087 593.531372,507.542725 
	C496.769348,508.009491 400.476013,508.002075 304.182709,508.048431 
	C302.121643,508.049438 300.060883,508.668976 298.000000,509.000000 
z"/>
<path fill="#FEFEFE" opacity="1.000000" stroke="none" 
	d="
M97.468658,509.000000 
	C96.989410,504.335876 97.237770,499.652405 96.891640,495.013306 
	C96.577881,490.807861 98.554291,489.881287 102.172417,489.991608 
	C107.498779,490.154053 112.858681,489.751801 118.155418,490.186127 
	C122.606461,490.551086 124.766251,488.580597 126.493561,484.842072 
	C132.076889,472.757629 138.143082,460.889130 143.449890,448.688080 
	C145.211197,444.638580 147.497696,443.442627 151.338943,444.038025 
	C156.026642,444.764618 157.576263,442.776276 157.235870,438.202545 
	C156.902969,433.729309 157.162582,429.211975 157.162125,424.714020 
	C157.160248,406.375061 157.236633,406.334991 148.874252,390.399841 
	C148.069382,388.866150 145.679077,387.686401 143.815201,387.261383 
	C127.303902,383.496368 116.481522,373.597046 110.912575,357.672638 
	C107.909805,349.086243 108.232872,340.540497 110.408524,331.881775 
	C111.177437,328.821625 112.754509,327.918945 115.689728,329.090851 
	C118.144768,330.071014 120.640976,330.966675 123.165993,331.747650 
	C125.591988,332.498047 127.173317,331.792999 126.850945,328.921173 
	C126.231079,323.399048 128.747849,319.356628 132.731995,315.916351 
	C137.756622,311.577637 142.707932,307.154053 147.731842,302.814484 
	C155.058792,296.485657 164.004059,298.439575 168.573441,306.144501 
	C171.874817,311.711304 169.641159,318.839111 163.271332,324.032684 
	C160.571320,326.234100 157.968369,328.562134 155.429871,330.948120 
	C154.883057,331.462067 154.342499,332.764435 154.611679,333.191895 
	C155.082352,333.939331 156.398987,334.904205 156.981918,334.699280 
	C159.358109,333.863953 162.169266,333.163269 163.786148,331.441803 
	C179.489456,314.722473 194.947647,297.773193 210.569778,280.976990 
	C213.521835,277.803070 214.539505,274.931061 213.233490,270.326233 
	C204.171341,238.374146 187.277039,211.328430 163.729599,188.077454 
	C154.058640,178.528275 144.994980,168.324997 136.148102,157.996933 
	C131.799271,152.919998 129.874252,146.424133 130.014130,139.592850 
	C130.090881,135.842987 128.331451,134.705566 124.808563,134.741821 
	C112.815193,134.865265 100.818588,134.699524 88.825935,134.854218 
	C84.668671,134.907852 82.789917,133.611176 82.740021,129.136948 
	C82.722610,127.576530 80.348618,124.747833 78.980309,124.704063 
	C69.002632,124.384933 59.004440,124.539230 49.020668,124.823181 
	C47.955040,124.853485 46.940449,126.678154 45.902184,127.670425 
	C47.122776,128.450912 48.306278,129.825851 49.570637,129.904739 
	C54.051296,130.184250 58.559574,130.021088 63.528275,130.464661 
	C64.018364,131.645416 64.037567,132.387192 64.056770,133.128967 
	C55.017506,133.385605 45.978657,133.704636 36.938084,133.764786 
	C36.305447,133.769012 35.298653,131.920731 35.103397,130.820724 
	C34.793148,129.072845 35.020588,127.229530 35.020588,125.110580 
	C33.066559,125.019630 31.447241,124.992439 29.836826,124.858330 
	C27.238464,124.641937 25.989817,123.610977 25.830395,120.582741 
	C25.722912,118.541084 24.299898,115.946136 22.637348,114.740982 
	C19.368752,112.371635 17.602085,109.681885 17.628765,105.640984 
	C17.695868,95.477654 17.723185,85.312859 17.617298,75.150215 
	C17.579216,71.495255 18.656214,68.969765 22.589172,68.378380 
	C25.493071,67.941750 26.118523,66.134331 26.141253,63.414360 
	C26.153419,61.958340 27.627241,59.188873 28.095583,59.260906 
	C35.285011,60.366627 35.694775,56.046051 34.920986,50.974171 
	C40.968990,48.393787 63.562145,49.468044 67.397942,53.790882 
	C61.823837,53.790882 57.488712,53.537834 53.202522,53.886459 
	C50.660358,54.093227 46.071491,51.850262 46.177677,56.604916 
	C46.273312,60.887165 50.647339,58.848980 53.087120,58.925552 
	C61.076946,59.176327 69.087418,58.807331 77.074142,59.103241 
	C81.332954,59.261032 83.407272,57.887356 82.927177,53.564606 
	C82.491760,49.644192 84.462471,48.808853 87.938263,48.812462 
	C148.254333,48.875057 208.570480,48.870319 268.886566,48.820045 
	C272.098206,48.817371 274.277374,49.361423 274.900665,53.123531 
	C275.087616,54.251759 277.159302,55.638309 278.543579,55.874454 
	C281.134369,56.316418 283.869598,55.832981 286.513123,56.077171 
	C287.857361,56.201347 290.059418,56.821175 290.281128,57.645340 
	C291.314362,61.486454 294.158173,60.749378 296.899841,61.157974 
	C299.456421,61.538990 301.828278,63.023254 304.366180,63.707577 
	C306.493408,64.281143 308.871582,64.954948 310.883484,64.487106 
	C311.878601,64.255692 312.750885,61.588257 312.886261,59.957222 
	C313.184296,56.367176 312.978821,52.735321 312.978821,48.132572 
	C315.662170,49.672226 317.549103,50.889500 319.548492,51.879719 
	C330.517487,57.312298 342.172577,56.240166 353.564331,54.499416 
	C367.551544,52.362064 381.284180,48.523178 395.283813,46.512291 
	C410.630737,44.307873 424.818817,47.636906 436.384399,58.930580 
	C437.694946,60.210300 439.570801,60.911076 441.711578,62.114784 
	C442.825775,62.566223 443.412872,62.783188 444.079956,63.378971 
	C444.981598,64.168556 445.833496,64.983429 446.620178,64.924698 
	C451.846313,64.534622 453.239777,67.243736 453.056427,71.946274 
	C452.823395,77.922264 453.342407,83.938225 452.925018,89.894051 
	C452.175598,100.587029 455.593140,111.681145 449.999573,121.926575 
	C448.674896,122.002953 447.325317,122.280556 446.029938,122.120262 
	C440.880127,121.483017 437.072693,123.229828 433.292389,126.994987 
	C427.034363,133.227982 418.845276,135.901855 410.122314,137.057571 
	C396.889252,138.810852 384.395630,134.922455 371.733093,132.294342 
	C358.930420,129.637177 346.047943,126.733620 332.953064,128.195724 
	C326.335144,128.934662 319.968231,131.921951 312.979462,134.047256 
	C312.979462,131.183655 313.209961,127.461807 312.877167,123.791031 
	C312.722717,122.087433 311.853027,119.564690 310.626862,119.056839 
	C308.938812,118.357689 305.557373,118.448769 304.749176,119.553314 
	C302.491272,122.639099 299.665741,122.034782 296.780670,122.119759 
	C294.199005,122.195808 291.482452,121.801247 290.671356,125.520096 
	C290.502106,126.296272 288.274323,126.954185 286.941284,127.075890 
	C284.298157,127.317184 281.536316,126.757668 278.982208,127.290131 
	C277.409882,127.617920 275.206146,129.141495 274.895599,130.496964 
	C274.001617,134.398941 271.536804,134.830582 268.308868,134.822159 
	C249.819336,134.773926 231.329636,134.786865 212.839981,134.793167 
	C206.228470,134.795425 206.028442,134.960632 208.922424,141.038834 
	C220.111984,164.540085 230.836578,188.326538 247.069000,208.981583 
	C257.106354,221.753677 269.420258,232.231110 282.518738,241.612885 
	C288.826172,246.130585 297.101044,247.931259 303.323151,252.533127 
	C330.818878,272.869019 337.657990,308.662628 311.806854,336.070648 
	C293.337311,355.652466 275.324097,375.664581 257.094482,395.472931 
	C252.480911,400.486053 247.601196,405.275787 243.285660,410.531036 
	C241.566605,412.624359 240.293900,415.654297 240.125519,418.339844 
	C239.688583,425.308594 240.103043,432.326080 239.921829,439.317505 
	C239.835403,442.652863 240.764709,444.102112 244.384323,444.196381 
	C245.978546,444.237885 248.233536,445.832886 248.978241,447.326141 
	C255.158188,459.717926 261.191498,472.188416 266.958069,484.777649 
	C268.801331,488.801788 271.099396,490.583527 275.661011,490.180786 
	C280.786224,489.728363 285.995636,490.292084 291.138062,489.953186 
	C295.556793,489.661957 296.655548,491.774567 296.481110,495.591125 
	C296.291077,499.749420 296.269714,503.915436 296.087402,508.539032 
	C229.979111,509.000000 163.958206,509.000000 97.468658,509.000000 
z"/>
<path fill="#161616" opacity="1.000000" stroke="none" 
	d="
M298.468658,509.000000 
	C300.060883,508.668976 302.121643,508.049438 304.182709,508.048431 
	C400.476013,508.002075 496.769348,508.009491 593.531372,508.005402 
	C592.502686,508.333374 591.005554,508.957642 589.508118,508.958405 
	C498.642334,509.004761 407.776550,509.000000 316.910767,509.000000 
	C310.919617,509.000000 304.928467,509.000000 298.468658,509.000000 
z"/>
<path fill="#131313" opacity="1.000000" stroke="none" 
	d="
M1.000000,508.500000 
	C30.327347,508.000427 59.654701,507.993744 88.982025,508.018341 
	C90.793602,508.019867 92.604958,508.267853 94.708206,508.700562 
	C63.666668,509.000000 32.333332,509.000000 1.000000,508.500000 
z"/>
<path fill="#FDFDFD" opacity="1.000000" stroke="none" 
	d="
M450.395142,122.030029 
	C455.593140,111.681145 452.175598,100.587029 452.925018,89.894051 
	C453.342407,83.938225 452.823395,77.922264 453.056427,71.946274 
	C453.239777,67.243736 451.846313,64.534622 446.620178,64.924698 
	C445.833496,64.983429 444.981598,64.168556 444.080994,63.083103 
	C444.002808,62.013935 444.003448,61.619450 444.004120,61.224968 
	C448.035278,61.258617 452.555695,59.457352 455.832489,64.795364 
	C461.257141,65.549164 466.168671,65.820648 471.082275,65.864182 
	C471.724884,65.869865 472.377838,64.705490 473.026031,64.083054 
	C476.326263,60.584194 479.476013,56.925446 482.971863,53.634342 
	C486.065704,50.721710 495.975403,51.393070 499.077942,54.376194 
	C501.110474,56.330517 503.159027,58.269562 505.250031,60.160545 
	C505.706818,60.573608 506.374817,60.753033 507.257141,61.196758 
	C508.388916,59.434853 509.359039,57.753696 510.494965,56.193211 
	C512.612488,53.284130 512.715759,51.061630 508.725067,49.877640 
	C505.820526,49.015896 505.442474,47.021786 506.431732,44.459538 
	C506.964203,43.080494 507.670837,41.713985 507.889648,40.279400 
	C508.425446,36.766781 510.512085,36.539047 513.305786,37.352657 
	C534.079895,43.402725 554.873962,49.385929 575.597717,55.603752 
	C577.002563,56.025265 578.899414,58.275146 578.787598,59.513992 
	C578.594238,61.655312 577.504456,64.843567 575.908142,65.524879 
	C570.507935,67.829803 564.776978,69.462845 559.048584,70.836617 
	C557.194580,71.281242 554.818726,70.466568 552.923584,69.659485 
	C545.809998,66.629990 538.715332,63.530071 531.783569,60.111759 
	C528.836365,58.658352 527.140259,59.344727 525.606445,61.856144 
	C523.796814,64.819290 521.909180,67.735512 520.139465,70.721947 
	C519.653748,71.541618 518.969116,72.716255 519.221069,73.429306 
	C523.048950,84.262856 520.460938,95.422653 520.800964,106.402969 
	C520.980469,112.200920 524.344543,115.829285 527.245728,119.901047 
	C527.738953,120.593300 530.296204,120.388412 531.583069,119.846207 
	C538.579407,116.898453 545.380859,113.466721 552.457092,110.740898 
	C555.105103,109.720879 558.424988,109.548401 561.241394,110.064629 
	C565.904541,110.919327 570.378418,112.757599 574.988281,113.967110 
	C578.502136,114.889046 579.488098,117.555374 578.826782,120.363518 
	C578.423035,122.077820 576.459595,124.212975 574.767822,124.715630 
	C554.622192,130.701111 534.389099,136.391251 514.199829,142.231262 
	C511.756866,142.937927 508.751251,144.318130 508.278961,140.702118 
	C507.824310,137.220886 502.211853,132.918930 509.171539,129.868759 
	C510.299347,129.374466 511.936523,127.753181 511.763153,127.030884 
	C511.333740,125.241844 510.275665,123.324799 508.878662,122.182953 
	C508.313019,121.720680 506.055664,122.916710 504.832306,123.747253 
	C501.032684,126.326920 499.163910,130.964798 493.324249,131.522873 
	C485.347656,132.285172 480.283539,128.649216 476.102356,123.032379 
	C473.610748,119.685158 470.843140,118.454468 466.849121,118.920265 
	C464.383728,119.207787 461.772369,118.570930 459.380463,119.076851 
	C456.433533,119.700172 453.646698,121.080391 450.395142,122.030029 
M515.529541,114.269989 
	C512.636841,117.337494 515.200745,122.776482 521.538330,123.932564 
	C519.705750,120.860756 517.873108,117.788948 515.529541,114.269989 
M519.039490,60.779381 
	C519.585693,59.017330 520.131897,57.255280 520.678101,55.493229 
	C520.162781,55.240101 519.647461,54.986973 519.132141,54.733841 
	C517.392212,57.327206 515.588867,59.882168 513.971436,62.549812 
	C513.684509,63.023117 514.040222,64.518288 514.325195,64.585678 
	C515.126709,64.775215 516.307739,64.764824 516.857422,64.283325 
	C517.672485,63.569309 518.073059,62.382103 519.039490,60.779381 
z"/>
<path fill="#FAFAFA" opacity="1.000000" stroke="none" 
	d="
M472.557129,64.124451 
	C472.377838,64.705490 471.724884,65.869865 471.082275,65.864182 
	C466.168671,65.820648 461.257141,65.549164 456.165558,65.023560 
	C461.353546,64.520996 466.720886,64.343422 472.557129,64.124451 
z"/>
<path fill="#E9E9E9" opacity="1.000000" stroke="none" 
	d="
M64.426048,133.058304 
	C64.037567,132.387192 64.018364,131.645416 63.990784,130.532715 
	C64.678993,130.371597 65.375580,130.581390 66.072166,130.791168 
	C65.646553,131.523331 65.220940,132.255478 64.426048,133.058304 
z"/>
<path fill="#FAFAFA" opacity="1.000000" stroke="none" 
	d="
M443.706451,61.140839 
	C444.003448,61.619450 444.002808,62.013935 444.001068,62.704285 
	C443.412872,62.783188 442.825775,62.566223 442.076477,62.071159 
	C442.412476,61.547611 442.910645,61.302158 443.706451,61.140839 
z"/>
<path fill="#1A1A1A" opacity="1.000000" stroke="none" 
	d="
M515.785034,114.493561 
	C517.873108,117.788948 519.705750,120.860756 521.538330,123.932564 
	C515.200745,122.776482 512.636841,117.337494 515.785034,114.493561 
z"/>
<path fill="#1A1A1A" opacity="1.000000" stroke="none" 
	d="
M518.844727,61.087852 
	C518.073059,62.382103 517.672485,63.569309 516.857422,64.283325 
	C516.307739,64.764824 515.126709,64.775215 514.325195,64.585678 
	C514.040222,64.518288 513.684509,63.023117 513.971436,62.549812 
	C515.588867,59.882168 517.392212,57.327206 519.132141,54.733841 
	C519.647461,54.986973 520.162781,55.240101 520.678101,55.493229 
	C520.131897,57.255280 519.585693,59.017330 518.844727,61.087852 
z"/>
</svg>